<?xml version="1.0" encoding="utf-8"?>
<!-- Generator: Adobe Illustrator 26.2.1, SVG Export Plug-In . SVG Version: 6.00 Build 0)  -->
<svg version="1.1" id="Capa_1" xmlns="http://www.w3.org/2000/svg" xmlns:xlink="http://www.w3.org/1999/xlink" x="0px" y="0px"
	 viewBox="0 0 805 600" style="enable-background:new 0 0 805 600;" xml:space="preserve">
<style type="text/css">
	.st0{fill:#FFFFFF;}
	.st1{fill:#BC8B11;}
	.st2{fill:#5B3411;}
	.st3{fill:#E5AA15;}
	.st4{fill:#8C4E1B;}
	.st5{fill:#FCBB17;}
	.st6{fill:#BF6A25;}
	.st7{font-family:'Arial-ItalicMT';}
	.st8{font-size:10px;}
</style>
<rect id="backgorund" class="st0" width="805" height="600"/>
<g id="viz" transform="translate(402.5,300)">
	<path class="st1" d="M1-143c79,0.6,142.5,65,142,144S78,143.5-1,143c-46.7-0.3-90.3-23.4-116.8-61.9l58.4-39.6
		c22.9,32.8,68.1,40.9,101,17.9s40.9-68.1,17.9-101C46.1-60.6,24.3-72.2,1-72.5V-143z"/>
	<path class="st2" d="M-118.9,79.4c-43.9-65.7-26.2-154.5,39.5-198.3C-56.2-134.4-28.9-142.8-1-143v70.5C-41-71.9-73-39-72.5,1
		c0.2,13.8,4.3,27.3,11.9,38.9L-118.9,79.4z"/>
	<path class="st3" d="M1-215.5C120-214.9,216-118,215.5,1c-0.3,58.5-24.3,114.3-66.6,154.8l-48.5-51.2c57.8-55.5,59.6-147.3,4.1-205
		C77.5-128.7,40.1-144.7,1-145V-215.5z"/>
	<path class="st3" d="M147.5,157.1C89.8,211.2,7.2,229.4-67.9,204.5l22.5-66.8C5,154.3,60.3,142.1,99,106L147.5,157.1z"/>
	<path class="st3" d="M-69.8,203.9c-43.9-15-81.8-43.8-108-82.1l58.4-39.6c17.6,25.5,42.9,44.8,72.2,54.9L-69.8,203.9z"/>
	<path class="st4" d="M-178.9,120.1c-8.3-12.4-15.3-25.6-20.9-39.4l65.5-26.1c3.7,9.1,8.3,17.8,13.8,25.9L-178.9,120.1z"/>
	<path class="st4" d="M-200.6,78.8c-22.9-58.2-19.3-123.5,9.7-178.9l62.3,33c-19.4,37.1-21.7,80.8-6.5,119.8L-200.6,78.8z"/>
	<path class="st4" d="M-189.9-101.8C-152.6-171.5-80.1-215.1-1-215.5v70.5c-53,0.4-101.5,29.6-126.6,76.2L-189.9-101.8z"/>
	<path class="st5" d="M1-288c20.2,0.1,40.2,2.3,59.9,6.5l-15.2,68.9c-14.7-3.2-29.7-4.8-44.8-4.9V-288z"/>
	<path class="st5" d="M62.9-281.1c19.7,4.4,38.8,10.9,57.1,19.3l-29.6,64c-13.7-6.3-28-11.1-42.7-14.4L62.9-281.1z"/>
	<path class="st5" d="M121.8-261c18.3,8.5,35.6,18.9,51.7,31.1l-42.7,56.1c-12-9.1-25-16.8-38.6-23.2L121.8-261z"/>
	<path class="st5" d="M175.1-228.7c16,12.3,30.7,26.1,43.8,41.5l-53.7,45.6c-9.8-11.4-20.8-21.8-32.7-31L175.1-228.7z"/>
	<path class="st5" d="M220.1-185.7c13,15.4,24.3,32.1,33.8,49.9l-62.3,33c-7.1-13.3-15.6-25.8-25.3-37.3L220.1-185.7z"/>
	<path class="st5" d="M254.9-134c9.4,17.8,16.9,36.6,22.3,56l-67.9,18.9c-4.1-14.5-9.7-28.5-16.7-41.8L254.9-134z"/>
	<path class="st5" d="M277.8-76.1c5.3,19.4,8.6,39.4,9.8,59.5l-70.4,3.8c-0.9-15-3.3-29.9-7.3-44.4L277.8-76.1z"/>
	<path class="st5" d="M287.6-14.6c1,20.1-0.1,40.3-3.3,60.2l-69.6-11.4c2.4-14.9,3.2-29.9,2.4-45L287.6-14.6z"/>
	<path class="st5" d="M284,47.6c-3.3,19.9-8.7,39.3-16.1,58.1l-65.5-26.1c5.5-14,9.5-28.6,12.1-43.4L284,47.6z"/>
	<path class="st5" d="M267.2,107.5c-7.5,18.7-17,36.5-28.2,53.3l-58.4-39.6c8.4-12.5,15.5-25.8,21.1-39.8L267.2,107.5z"/>
	<path class="st5" d="M237.8,162.4c-11.4,16.6-24.4,32-39,45.9l-48.5-51.2c10.9-10.4,20.7-21.9,29.2-34.3L237.8,162.4z"/>
	<path class="st5" d="M197.3,209.8c-14.7,13.8-30.8,26-48,36.5L113,185.8c12.9-7.8,24.9-17,35.9-27.3L197.3,209.8z"/>
	<path class="st5" d="M147.6,247.3c-17.3,10.3-35.6,18.8-54.7,25.3l-22.5-66.8c14.2-4.9,27.9-11.2,40.9-18.9L147.6,247.3z"/>
	<path class="st5" d="M91,273.2c-19.1,6.4-38.9,10.7-58.9,13l-7.6-70.1c15-1.7,29.7-4.9,44-9.7L91,273.2z"/>
	<path class="st5" d="M30.1,286.4c-20,2.1-40.2,2.1-60.3,0l7.6-70.1c15,1.6,30.1,1.6,45,0L30.1,286.4z"/>
	<path class="st5" d="M-32.1,286.2c-20-2.2-39.8-6.6-58.9-13l22.5-66.8c14.3,4.7,29,8,44,9.7L-32.1,286.2z"/>
	<path class="st5" d="M-92.9,272.6c-19.1-6.5-37.4-15-54.7-25.3l36.3-60.4c12.9,7.7,26.6,14,40.9,18.9L-92.9,272.6z"/>
	<path class="st5" d="M-149.3,246.3c-17.2-10.4-33.3-22.7-48-36.5l48.5-51.2c11,10.3,23,19.4,35.9,27.3L-149.3,246.3z"/>
	<path class="st5" d="M-198.8,208.4c-14.6-13.9-27.7-29.3-39-45.9l58.4-39.6c8.5,12.4,18.3,23.9,29.2,34.3L-198.8,208.4z"/>
	<path class="st6" d="M-238.9,160.8c-11.3-16.7-20.7-34.6-28.2-53.3l65.5-26.1c5.6,14,12.7,27.3,21.1,39.8L-238.9,160.8z"/>
	<path class="st6" d="M-267.9,105.7c-7.4-18.7-12.8-38.2-16.1-58.1l69.6-11.4c2.5,14.8,6.5,29.4,12.1,43.4L-267.9,105.7z"/>
	<path class="st6" d="M-284.4,45.6c-3.2-19.9-4.3-40.1-3.3-60.2l70.4,3.8c-0.7,15,0.1,30.1,2.4,45L-284.4,45.6z"/>
	<path class="st6" d="M-287.5-16.6c1.2-20.1,4.4-40.1,9.8-59.5l67.9,18.9c-4,14.5-6.4,29.4-7.3,44.4L-287.5-16.6z"/>
	<path class="st6" d="M-277.2-78c5.5-19.4,12.9-38.2,22.3-56l62.3,33c-7,13.3-12.6,27.4-16.7,41.8L-277.2-78z"/>
	<path class="st6" d="M-254-135.8c9.5-17.8,20.8-34.5,33.8-49.9l53.7,45.6c-9.7,11.5-18.2,24-25.3,37.3L-254-135.8z"/>
	<path class="st6" d="M-218.9-187.2c13.1-15.3,27.8-29.2,43.8-41.5l42.7,56.1c-11.9,9.2-22.9,19.5-32.7,31L-218.9-187.2z"/>
	<path class="st6" d="M-173.5-229.9c16.1-12.1,33.4-22.6,51.7-31.1l29.6,64c-13.6,6.4-26.6,14.2-38.6,23.2L-173.5-229.9z"/>
	<path class="st6" d="M-120-261.8c18.3-8.4,37.5-14.8,57.1-19.3l15.2,68.9c-14.7,3.3-29,8.1-42.7,14.4L-120-261.8z"/>
	<path class="st6" d="M-60.9-281.5c19.7-4.3,39.8-6.4,59.9-6.5v70.5c-15.1,0.1-30.1,1.7-44.8,4.9L-60.9-281.5z"/>
</g>
<g id="labels" transform="translate(402.5,300)">
	<text transform="matrix(0.8835 0.4684 -0.4684 0.8835 74.8146 44.1917)" class="st7 st8">ARÁBICA</text>
	<text transform="matrix(0.8835 0.4684 -0.4684 0.8835 -118.9823 -58.5529)" class="st7 st8">ROBUSTA</text>
	<text transform="matrix(0.929 -0.3701 0.3701 0.929 148.6949 -54.9395)" class="st7 st8">AMÉRICA</text>
	<text transform="matrix(0.215 0.9766 -0.9766 0.215 31.1153 159.9661)" class="st7 st8">ÁFRICA</text>
	<text transform="matrix(0.6052 -0.7961 0.7961 0.6052 -113.3988 155.7832)" class="st7 st8">ASIA</text>
	<text transform="matrix(0.8835 -0.4684 0.4684 0.8835 -178.39 99.1039)" class="st7 st8">AMÉRICA</text>
	<text transform="matrix(0.9985 5.413902e-02 -5.413902e-02 0.9985 -199.5088 -6.8112)" class="st7 st8">ÁFRICA</text>
	<text transform="matrix(0.5156 0.8569 -0.8569 0.5156 -102.7459 -163.0061)" class="st7 st8">ASIA</text>
	<text transform="matrix(0.1081 -0.9941 0.9941 0.1081 29.3085 -232.4909)" class="st7 st8">BOLIVIA</text>
	<text transform="matrix(0.3193 -0.9477 0.9477 0.3193 76.3858 -214.1771)" class="st7 st8">COLOMBIA</text>
	<text transform="matrix(0.5156 -0.8569 0.8569 0.5156 118.7813 -189.6579)" class="st7 st8">COSTA RICA</text>
	<text transform="matrix(0.6877 -0.726 0.726 0.6877 160.2135 -163.3187)" class="st7 st8">ECUADOR</text>
	<text transform="matrix(0.8277 -0.5612 0.5612 0.8277 184.0513 -119.9572)" class="st7 st8">EL SALVADOR</text>
	<text transform="matrix(0.929 -0.3701 0.3701 0.929 208.9036 -78.929)" class="st7 st8">GUATEMALA</text>
	<text transform="matrix(0.9868 -0.1618 0.1618 0.9868 229.6699 -33.599)" class="st7 st8">JAMAICA</text>
	<text transform="matrix(0.9985 5.413891e-02 -5.413891e-02 0.9985 223.4783 16.1225)" class="st7 st8">NICARAGUA</text>
	<text transform="matrix(0.9635 0.2675 -0.2675 0.9635 223.4422 66.1897)" class="st7 st8">PANAMÁ</text>
	<text transform="matrix(0.8835 0.4684 -0.4684 0.8835 210.0441 115.8858)" class="st7 st8">PERÚ</text>
	<text transform="matrix(0.7622 0.6474 -0.6474 0.7622 168.1483 148.0752)" class="st7 st8">VENEZUELA</text>
	<text transform="matrix(0.6052 0.7961 -0.7961 0.6052 138.4404 188.725)" class="st7 st8">ETIOPÍA</text>
	<text transform="matrix(0.4199 0.9076 -0.9076 0.4199 96.6163 218.3587)" class="st7 st8">KENIA</text>
	<text transform="matrix(0.215 0.9766 -0.9766 0.215 43.2969 215.3087)" class="st7 st8">MOZAMBIQUE</text>
	<text transform="matrix(-1.836970e-16 -1 1 -1.836970e-16 4 278.1035)" class="st7 st8">TANZANIA</text>
	<text transform="matrix(0.215 -0.9766 0.9766 0.215 -54.6437 266.8557)" class="st7 st8">ZAMBIA</text>
	<text transform="matrix(0.4199 -0.9076 0.9076 0.4199 -108.5157 244.0795)" class="st7 st8">INDIA</text>
	<text transform="matrix(0.6052 -0.7961 0.7961 0.6052 -167.0238 226.3262)" class="st7 st8">INDONESIA</text>
	<text transform="matrix(0.7622 -0.6474 0.6474 0.7622 -204.3609 178.8341)" class="st7 st8">YEMEN</text>
	<text transform="matrix(0.8835 -0.4684 0.4684 0.8835 -238.0314 130.7237)" class="st7 st8">BRASIL</text>
	<text transform="matrix(0.9635 -0.2675 0.2675 0.9635 -263.511 77.3148)" class="st7 st8">ANGOLA</text>
	<text transform="matrix(0.9985 -5.413902e-02 5.413902e-02 0.9985 -278.4025 19.1004)" class="st7 st8">CAMERÚN</text>
	<text transform="matrix(0.9868 0.1618 -0.1618 0.9868 -295.1918 -44.3409)" class="st7 st8">COSTA DE MARFIL</text>
	<text transform="matrix(0.929 0.3701 -0.3701 0.929 -257.0807 -98.1246)" class="st7 st8">UGANDA</text>
	<text transform="matrix(0.8277 0.5612 -0.5612 0.8277 -223.3079 -146.5739)" class="st7 st8">INDIA</text>
	<text transform="matrix(0.6877 0.726 -0.726 0.6877 -185.6281 -190.1484)" class="st7 st8">JAVA</text>
	<text transform="matrix(0.5156 0.8569 -0.8569 0.5156 -147.7156 -237.7469)" class="st7 st8">SRI LANKA</text>
	<text transform="matrix(0.3193 0.9477 -0.9477 0.3193 -92.5005 -262.0043)" class="st7 st8">SUMATRA</text>
	<text transform="matrix(0.1081 0.9941 -0.9941 0.1081 -33.8143 -273.9239)" class="st7 st8">VIETNAM</text>
</g>
<g>
	<path class="st4" d="M373.4,287.3c0.1-4.2,1.4-9.5,5.5-13.8c2.9-3,4.2-2.8,5.2,1.2c1.7,6.8,4.7,12.9,9.3,18.2
		c4.6,5.2,9.6,10.2,14.3,15.3c4.8,5.3,8.7,11.2,10.7,18.1c1.6,5.4,0.8,6.4-4.9,6.3c-8.7-0.3-16-3.9-22.5-9.4
		C380.4,314.4,373.4,300.7,373.4,287.3z"/>
	<path class="st4" d="M431.9,314c-0.8,2.5-2,6.7-3.6,10.8c-0.6,1.4-2.2,2.4-3.4,3.6c-0.9-1.4-2.1-2.6-2.6-4.1
		c-2.3-7.5-6.2-14-11.4-19.7c-3.9-4.2-8.1-8.2-11.9-12.5c-5-5.6-9-11.9-10.5-19.5c-0.6-3.2,0-4.1,3.3-4c7.3,0.2,13.8,2.9,19.6,7.3
		C423.4,284.9,430.6,296.8,431.9,314z"/>
</g>
</svg>
